# xmcd
#
# Track frame offsets:
#	150
#	18460
#	35619
#	39601
#	56231
#	74201
#	92195
#	112893
#	128271
#	140779
#	157004
#	168955
#	185454
#
# Disc length: 2628 seconds
#
# Revision: 0
# Processed by: cddbd v1.5.2PL0 Copyright (c) Steve Scherf et al.
# Submitted via: EZCDAudioConverter 2.1.7.1
#
DISCID=bb0a420d
DTITLE=V/A - Once
DYEAR=1900
DGENRE=
TTITLE0=Glen Hansard and Marketa Irglova - Falling Slowly
TTITLE1=Marketa Irglova and Glen Hansard - If You Want Me
TTITLE2=Glen Hansard - Broken Hearted Hoover Fixer Sucker Guy
TTITLE3=Glen Hansard and Marketa Irglova - When Your Mind's Made Up
TTITLE4=Glen Hansard - Lies
TTITLE5=Interference - Gold
TTITLE6=Marketa Irglova - The Hill
TTITLE7=Glen Hansard - Fallen From The Sky
TTITLE8=Glen Hansard - Leave
TTITLE9=Glen Hansard - Trying To Pull Myself Away
TTITLE10=Glen Hansard - All The Way Down
TTITLE11=Glen Hansard and Marketa Irglova - Once
TTITLE12=Glen Hansard - Say It To Me Now
EXTD=
EXTT0=
EXTT1=
EXTT2=
EXTT3=
EXTT4=
EXTT5=
EXTT6=
EXTT7=
EXTT8=
EXTT9=
EXTT10=
EXTT11=
EXTT12=
PLAYORDER=
